DBRep_DrawableShape

CASCADE Topology V1, (c) Matra-Datavision
Locations 41
1
              1               0               0               0 
              0               1               0               0 
              0               0               1               0 
1
              1               0               0               0 
              0               1               0             -50 
              0               0               1             -85 
1
              1               0               0               0 
              0               1               0               0 
              0               0               1               0 
1
              1               0               0               0 
              0               1               0               0 
              0               0               1               0 
2  2 1 3 1 4 1 0
2  2 -1 0
2  1 -1 4 -1 3 -1 2 -1 0
2  3 -1 2 -1 0
2  4 -1 3 -1 2 -1 0
2  3 1 4 1 0
1
              1               0               0               0 
              0               1               0             -40 
              0               0               1             -85 
2  2 1 11 -1 0
2  11 -1 0
2  1 -1 4 -1 3 -1 11 -1 0
2  2 1 3 1 0
2  11 1 3 1 0
2  3 -1 11 -1 0
2  4 -1 3 -1 11 -1 0
1
-1.36717893950422e-16               0               1               0 
              0               1               0               0 
             -1               0 -1.36717893950422e-16             -55 
2  2 1 3 1 19 -1 0
2  4 -1 19 -1 0
2  19 -1 0
2  1 -1 4 -1 19 -1 0
1
              1               0               0              75 
              0               1               0             -25 
              0               0               1             -55 
1
              1               0               0               0 
              0               1               0               0 
              0               0               1               0 
2  24 1 25 1 0
2  2 1 3 1 4 1 25 -1 24 -1 0
2  25 -1 24 -1 0
2  1 -1 25 -1 24 -1 0
1
              1               0               0              15 
              0               1               0             -25 
              0               0               1             -55 
2  30 1 25 1 0
2  2 1 3 1 4 1 25 -1 30 -1 0
2  25 -1 30 -1 0
2  1 -1 25 -1 30 -1 0
2  11 1 3 1 4 1 0
2  4 -1 0
2  1 -1 4 -1 0
2  11 1 3 1 4 1 25 -1 24 -1 0
2  11 1 3 1 4 1 25 -1 30 -1 0
2  19 1 4 1 0
2  1 -1 0
Curve2ds 132
1 0 0 0 1 
1 0 0 1 0 
1 0 140 1 0 
1 0 0 1 0 
1 85 0 0 1 
1 0 0 1 0 
1 0 0 1 0 
1 0 0 1 0 
1 0 0 0 1 
1 0 0 0 -1 
1 0 10 1 0 
1 0 0 0 1 
1 140 0 0 1 
1 0 0 0 -1 
1 0 -100 1 0 
1 0 140 1 0 
1 0 0 0 -1 
1 140 0 0 1 
1 0 -90 1 0 
1 0 140 1 0 
1 30 -10 0 -1 
1 140 0 0 1 
2 29.999999999999972 -50 -1 0 -0 -1 20
1 0 140 1 0 
1 30 -10 0 -1 
1 140 0 0 1 
1 0 -10 1 0 
1 0 140 1 0 
1 85 0 0 -1 
1 140 0 0 1 
1 75 25 0 1 
1 55 0 0 -1 
1 75 25 1 0 
1 55 0 0 1 
1 125 25 0 1 
1 55 0 0 -1 
1 75 75 1 0 
1 55 0 0 1 
1 15 25 0 1 
1 55 0 0 -1 
1 15 25 1 0 
1 55 0 0 1 
1 65 25 0 1 
1 55 0 0 -1 
1 15 75 1 0 
1 55 0 0 1 
1 0 0 0 1 
1 85 0 0 -1 
1 0 100 1 0 
1 85 0 0 1 
1 0 -100 1 0 
1 0 0 1 0 
1 0 0 0 -1 
1 0 0 0 1 
1 0 -90 1 0 
1 0 0 1 0 
1 30 -10 0 -1 
1 0 0 0 1 
2 30 -50 -1 0 -0 -1 20
1 0 0 1 0 
1 30 -10 0 -1 
1 0 0 0 1 
1 0 -10 1 0 
1 0 0 1 0 
1 30 0 0 1 
1 0 0 1 0 
1 0 0 0 1 
1 0 100 1 0 
1 0 90 1 0 
1 0 0 0 1 
1 30 0 0 1 
1 0 80 1 0 
8 -1.6742560161290087e-31 140
1 0 60 1 0 
8 -1.6742560161290087e-31 140
1 1.5707963267948966 0 0 1 
1 125 15 0 1 
1 0 0 0 -1 
1 75 65 1 0 
1 0 0 0 1 
1 75 15 0 1 
1 0 0 0 -1 
8 -1.6742560161290087e-31 140
1 0 60 1 0 
8 -1.6742560161290087e-31 140
1 1.5707963267948966 0 0 1 
1 65 15 0 1 
1 0 0 0 -1 
1 15 65 1 0 
1 0 0 0 1 
1 15 15 0 1 
1 0 0 0 -1 
8 -1.6742560161290087e-31 140
1 0 60 1 0 
8 -1.6742560161290087e-31 140
1 1.5707963267948966 0 0 1 
8 -1.0754450056033207e-30 140
1 4.7123889803846897 0 0 1 
8 -1.0754450056033207e-30 140
1 0 19.999999999999996 1 0 
1 -3.1415926535897931 125 1 0 
2 -2.8421709430404007e-14 -25 1 0 -0 1 20
8 -1.0754450056033207e-30 140
1 0 19.999999999999996 1 0 
8 -1.0754450056033207e-30 140
1 4.7123889803846897 0 0 1 
1 15 15 0 1 
1 0 0 0 -1 
1 15 15 1 0 
1 0 0 0 1 
1 65 15 0 1 
1 0 0 0 -1 
8 -1.0754450056033207e-30 140
1 0 19.999999999999996 1 0 
8 -1.0754450056033207e-30 140
1 4.7123889803846897 0 0 1 
1 75 15 0 1 
1 0 0 0 -1 
1 75 15 1 0 
1 0 0 0 1 
1 125 15 0 1 
1 0 0 0 -1 
2 -1.4210854715202004e-14 -25 1 0 -0 1 20
1 -3.1415926535897931 75 1 0 
1 0 0 1 0 
1 0 0 1 0 
1 0 -50 1 0 
1 0 0 1 0 
1 0 50 1 0 
1 0 0 1 0 
1 0 -50 1 0 
1 0 50 1 0 
2 0 -25 1 0 -0 1 20
1 -3.1415926535897931 15 1 0 
1 0 0 1 0 
1 0 0 1 0 
1 0 -50 1 0 
1 0 0 1 0 
1 0 50 1 0 
1 0 0 1 0 
2 -1.4210854715202004e-14 -25 1 0 -0 1 20
1 -3.1415926535897931 65 1 0 
1 0 -50 1 0 
1 0 50 1 0 
Curves 66
1 0 0 0 1 0 -0 
1 140 0 0 0 0 1 
1 0 0 85 1 0 -0 
1 0 0 0 0 0 1 
1 0 0 0 -0 1 0 
1 0 0 0 1 0 -0 
1 140 0 0 -0 1 0 
1 140 100 0 0 0 1 
1 140 0 0 -0 1 0 
1 140 80 0 0 0 1 
1 140 0 30 0 1 0 
2 0 0 140 0 0 1 1 0 -0 -0 1 0 20
1 140 0 30 0 1 0 
1 140 0 0 0 0 1 
1 140 0 85 0 1 0 
1 0 0 55 -0 1 0 
1 0 0 55 1 0 -0 
1 50 0 55 0 1 0 
1 0 50 55 1 0 -0 
1 0 0 55 -0 1 0 
1 0 0 55 1 0 -0 
1 50 0 55 0 1 0 
1 0 50 55 1 0 -0 
1 0 0 85 -0 1 0 
1 0 100 85 1 0 -0 
1 0 100 0 0 0 1 
1 0 0 0 -0 1 0 
1 0 80 0 0 0 1 
1 0 0 30 -0 1 0 
2 0 0 0 0 0 1 1 0 -0 -0 1 0 20
1 0 0 30 -0 1 0 
1 0 0 0 0 0 1 
1 0 0 30 1 0 -0 
1 0 100 0 1 0 -0 
1 0 80 0 1 0 -0 
1 0 80 30 1 0 -0 
1 0 20.000000000000004 -55 1 0 -2.2204460492503126e-16 
1 50 0 0 -0 1 0 
1 0 50 0 1 0 -0 
1 0 0 0 -0 1 0 
1 0 20.000000000000004 -55 1 0 -2.2204460492503126e-16 
1 50 0 0 -0 1 0 
1 0 50 0 1 0 -0 
1 0 0 0 -0 1 0 
1 0 20.000000000000004 -55 1 0 -2.2204460492503126e-16 
1 0 -20.000000000000004 -55 1 0 -2.2204460492503126e-16 
2 125 0 -55.000000000000028 1 0 -2.2204460492503101e-16 2.2204460492503101e-16 0 1 0 -1 0 20
1 0 -20.000000000000004 -55 1 0 -2.2204460492503126e-16 
1 0 0 0 -0 1 0 
1 0 0 0 1 0 -0 
1 50 0 0 -0 1 0 
1 0 -20.000000000000004 -55 1 0 -2.2204460492503126e-16 
1 0 0 0 -0 1 0 
1 0 0 0 1 0 -0 
1 50 0 0 -0 1 0 
2 75 0 -55.000000000000014 1 0 -2.2204460492503101e-16 2.2204460492503101e-16 0 1 0 -1 0 20
1 0 0 0 0 0 1 
1 0 50 0 0 0 1 
1 50 0 0 0 0 1 
1 50 50 0 0 0 1 
2 15 0 -55 1 0 -2.2204460492503101e-16 2.2204460492503101e-16 0 1 0 -1 0 20
1 0 0 0 0 0 1 
1 0 50 0 0 0 1 
1 50 0 0 0 0 1 
2 65 0 -55.000000000000014 1 0 -2.2204460492503101e-16 2.2204460492503101e-16 0 1 0 -1 0 20
1 50 50 0 0 0 1 
Polygon3D 0
PolygonOnTriangulations 132
2 1 2 
p 0.541666666666667 1 0 140 
2 1 4 
p 0.541666666666667 1 0 140 
2 2 3 
p 0.541666666666667 1 0 85 
2 21 22 
p 0.541666666666667 1 0 85 
2 4 3 
p 0.541666666666667 1 0 140 
2 9 12 
p 0.541666666666667 1 0 140 
2 1 4 
p 0.541666666666667 1 0 85 
2 21 22 
p 0.541666666666667 1 0 85 
2 1 2 
p 0.541666666666667 1 0 10 
2 21 20 
p 0.541666666666667 1 0 10 
2 2 3 
p 0.541666666666667 1 0 140 
2 1 2 
p 0.541666666666667 1 0 140 
2 4 3 
p 0.541666666666667 1 0 10 
2 21 20 
p 0.541666666666667 1 0 10 
2 1 2 
p 0.541666666666667 1 0 85 
2 2 3 
p 0.541666666666667 1 0 85 
2 3 1 
p 0.541666666666667 1 90 100 
2 4 3 
p 0.541666666666667 1 90 100 
2 3 4 
p 0.541666666666667 1 0 30 
2 2 3 
p 0.541666666666667 1 0 30 
2 5 4 
p 0.541666666666667 1 60.00000005 80 
2 4 3 
p 0.541666666666667 1 60.00000005 80 
14 2 4 5 6 7 8 9 10 11 12 13 14 15 3 
p 0.541666666666667 1 1.5707963267949 1.81245730014796 2.05411827350102 2.29577924685408 2.53744022020714 2.7791011935602 3.02076216691326 3.26242314026633 3.50408411361939 3.74574508697245 3.98740606032551 4.22906703367857 4.47072800703163 4.71238898038469 
14 5 7 8 9 10 11 12 13 14 15 16 17 18 6 
p 0.541666666666667 1 1.5707963267949 1.81245730014796 2.05411827350102 2.29577924685408 2.53744022020714 2.7791011935602 3.02076216691326 3.26242314026633 3.50408411361939 3.74574508697245 3.98740606032551 4.22906703367857 4.47072800703163 4.71238898038469 
2 19 6 
p 0.541666666666667 1 0 20 
2 11 10 
p 0.541666666666667 1 0 20 
2 20 19 
p 0.541666666666667 1 0 30 
2 2 3 
p 0.541666666666667 1 0 30 
2 22 2 
p 0.541666666666667 1 0 100 
2 12 11 
p 0.541666666666667 1 0 100 
2 1 2 
p 0.541666666666667 1 0 50 
2 16 17 
p 0.541666666666667 1 0 50 
2 1 3 
p 0.541666666666667 1 0 50 
2 4 3 
p 0.541666666666667 1 0 50 
2 3 4 
p 0.541666666666667 1 0 50 
2 16 17 
p 0.541666666666667 1 0 50 
2 2 4 
p 0.541666666666667 1 0 50 
2 4 3 
p 0.541666666666667 1 0 50 
2 5 6 
p 0.541666666666667 1 0 50 
2 16 17 
p 0.541666666666667 1 0 50 
2 5 7 
p 0.541666666666667 1 0 50 
2 4 3 
p 0.541666666666667 1 0 50 
2 7 8 
p 0.541666666666667 1 0 50 
2 16 17 
p 0.541666666666667 1 0 50 
2 6 8 
p 0.541666666666667 1 0 50 
2 4 3 
p 0.541666666666667 1 0 50 
2 9 10 
p 0.541666666666667 1 0 100 
2 22 2 
p 0.541666666666667 1 0 100 
2 10 11 
p 0.541666666666667 1 0 140 
2 4 3 
p 0.541666666666667 1 0 140 
2 1 2 
p 0.541666666666667 1 0 85 
2 1 4 
p 0.541666666666667 1 0 85 
2 3 1 
p 0.541666666666667 1 90 100 
2 1 2 
p 0.541666666666667 1 90 100 
2 3 4 
p 0.541666666666667 1 0 30 
2 1 4 
p 0.541666666666667 1 0 30 
2 5 4 
p 0.541666666666667 1 60.00000005 80 
2 1 2 
p 0.541666666666667 1 60.00000005 80 
14 16 17 18 19 20 21 22 23 24 25 26 27 28 15 
p 0.541666666666667 1 1.5707963267949 1.81245730014796 2.05411827350102 2.29577924685408 2.53744022020714 2.7791011935602 3.02076216691326 3.26242314026633 3.50408411361939 3.74574508697245 3.98740606032551 4.22906703367857 4.47072800703163 4.71238898038469 
14 5 7 8 9 10 11 12 13 14 15 16 17 18 6 
p 0.541666666666667 1 1.5707963267949 1.81245730014796 2.05411827350102 2.29577924685408 2.53744022020714 2.7791011935602 3.02076216691326 3.26242314026633 3.50408411361939 3.74574508697245 3.98740606032551 4.22906703367857 4.47072800703163 4.71238898038469 
2 19 6 
p 0.541666666666667 1 0 20 
2 12 1 
p 0.541666666666667 1 0 20 
2 20 19 
p 0.541666666666667 1 0 30 
2 1 4 
p 0.541666666666667 1 0 30 
2 4 3 
p 0.541666666666667 1 0 140 
2 12 11 
p 0.541666666666667 1 0 140 
2 1 2 
p 0.541666666666667 1 0 140 
2 2 3 
p 0.541666666666667 1 0 140 
2 1 4 
p 0.541666666666667 1 0 140 
2 1 2 
p 0.541666666666667 1 0 140 
2 4 3 
p 0.541666666666667 1 0 140 
2 2 3 
p 0.541666666666667 1 0 140 
2 1 2 
p 0.541666666666667 1 125 140 
2 5 4 
p 0.541666666666667 1 125 140 
2 5 6 
p 0.541666666666667 1 45.00000005 50 
2 1 18 
p 0.541666666666667 1 45.00000005 50 
2 7 6 
p 0.541666666666667 1 0 50 
2 1 2 
p 0.541666666666667 1 0 50 
2 8 7 
p 0.541666666666667 1 45.00000005 50 
2 1 18 
p 0.541666666666667 1 45.00000005 50 
2 1 2 
p 0.541666666666667 1 65 75 
2 9 8 
p 0.541666666666667 1 65 75 
2 9 10 
p 0.541666666666667 1 45.00000005 50 
2 1 18 
p 0.541666666666667 1 45.00000005 50 
2 11 10 
p 0.541666666666667 1 0 50 
2 1 2 
p 0.541666666666667 1 0 50 
2 12 11 
p 0.541666666666667 1 45.00000005 50 
2 1 18 
p 0.541666666666667 1 45.00000005 50 
2 16 1 
p 0.541666666666667 1 -1.67425601612901e-31 15 
2 1 12 
p 0.541666666666667 1 -1.67425601612901e-31 15 
2 16 3 
p 0.541666666666667 1 125 140 
2 9 10 
p 0.541666666666667 1 125 140 
14 1 17 18 19 20 21 22 23 24 25 26 27 28 16 
p 0.541666666666667 1 4.71238898038469 4.95404995373775 5.19571092709081 5.43737190044387 5.67903287379693 5.92069384714999 6.16235482050305 6.40401579385612 6.64567676720918 6.88733774056224 7.1289987139153 7.37065968726836 7.61232066062142 7.85398163397448 
14 1 3 4 5 6 7 8 9 10 11 12 13 14 2 
p 0.541666666666667 1 4.71238898038469 4.95404995373775 5.19571092709081 5.43737190044387 5.67903287379693 5.92069384714999 6.16235482050305 6.40401579385612 6.64567676720918 6.88733774056224 7.1289987139153 7.37065968726836 7.61232066062142 7.85398163397448 
2 15 2 
p 0.541666666666667 1 -1.07544500560332e-30 15 
2 1 2 
p 0.541666666666667 1 -1.07544500560332e-30 15 
2 3 2 
p 0.541666666666667 1 0 5 
2 15 2 
p 0.541666666666667 1 0 5 
2 3 4 
p 0.541666666666667 1 0 50 
2 1 2 
p 0.541666666666667 1 0 50 
2 4 5 
p 0.541666666666667 1 0 5 
2 15 2 
p 0.541666666666667 1 0 5 
2 16 3 
p 0.541666666666667 1 65 75 
2 5 6 
p 0.541666666666667 1 65 75 
2 7 6 
p 0.541666666666667 1 0 5 
2 15 2 
p 0.541666666666667 1 0 5 
2 7 8 
p 0.541666666666667 1 0 50 
2 1 2 
p 0.541666666666667 1 0 50 
2 8 9 
p 0.541666666666667 1 0 5 
2 15 2 
p 0.541666666666667 1 0 5 
14 2 4 5 6 7 8 9 10 11 12 13 14 15 3 
p 0.541666666666667 1 4.71238898038469 4.95404995373775 5.19571092709081 5.43737190044387 5.67903287379693 5.92069384714999 6.16235482050305 6.40401579385612 6.64567676720918 6.88733774056224 7.1289987139153 7.37065968726836 7.61232066062142 7.85398163397448 
14 1 3 4 5 6 7 8 9 10 11 12 13 14 2 
p 0.541666666666667 1 4.71238898038469 4.95404995373775 5.19571092709081 5.43737190044387 5.67903287379693 5.92069384714999 6.16235482050305 6.40401579385612 6.64567676720918 6.88733774056224 7.1289987139153 7.37065968726836 7.61232066062142 7.85398163397448 
2 15 16 
p 0.541666666666667 1 0 55 
2 1 4 
p 0.541666666666667 1 0 55 
2 18 17 
p 0.541666666666667 1 0 55 
2 1 4 
p 0.541666666666667 1 0 55 
2 2 3 
p 0.541666666666667 1 0 55 
2 15 16 
p 0.541666666666667 1 0 55 
2 18 17 
p 0.541666666666667 1 0 55 
2 2 3 
p 0.541666666666667 1 0 55 
14 1 3 4 5 6 7 8 9 10 11 12 13 14 2 
p 0.541666666666667 1 4.71238898038469 4.95404995373775 5.19571092709081 5.43737190044387 5.67903287379693 5.92069384714999 6.16235482050305 6.40401579385612 6.64567676720918 6.88733774056224 7.1289987139153 7.37065968726836 7.61232066062142 7.85398163397448 
14 1 3 4 5 6 7 8 9 10 11 12 13 14 2 
p 0.541666666666667 1 4.71238898038469 4.95404995373775 5.19571092709081 5.43737190044387 5.67903287379693 5.92069384714999 6.16235482050305 6.40401579385612 6.64567676720918 6.88733774056224 7.1289987139153 7.37065968726836 7.61232066062142 7.85398163397448 
2 15 16 
p 0.541666666666667 1 0 55 
2 1 4 
p 0.541666666666667 1 0 55 
2 18 17 
p 0.541666666666667 1 0 55 
2 1 4 
p 0.541666666666667 1 0 55 
2 2 3 
p 0.541666666666667 1 0 55 
2 15 16 
p 0.541666666666667 1 0 55 
14 1 17 18 19 20 21 22 23 24 25 26 27 28 16 
p 0.541666666666667 1 4.71238898038469 4.95404995373775 5.19571092709081 5.43737190044387 5.67903287379693 5.92069384714999 6.16235482050305 6.40401579385612 6.64567676720918 6.88733774056224 7.1289987139153 7.37065968726836 7.61232066062142 7.85398163397448 
14 1 3 4 5 6 7 8 9 10 11 12 13 14 2 
p 0.541666666666667 1 4.71238898038469 4.95404995373775 5.19571092709081 5.43737190044387 5.67903287379693 5.92069384714999 6.16235482050305 6.40401579385612 6.64567676720918 6.88733774056224 7.1289987139153 7.37065968726836 7.61232066062142 7.85398163397448 
2 18 17 
p 0.541666666666667 1 0 55 
2 2 3 
p 0.541666666666667 1 0 55 
Surfaces 22
1 0 0 0 -0 1 0 0 0 1 1 0 -0 
1 0 0 0 0 0 1 1 0 -0 -0 1 0 
1 140 0 0 1 0 -0 0 0 1 0 -1 0 
1 0 0 85 0 0 1 1 0 -0 -0 1 0 
1 0 0 0 1 0 -0 0 0 1 0 -1 0 
1 0 0 0 -0 1 0 0 0 1 1 0 -0 
1 0 100 0 -0 1 0 0 0 1 1 0 -0 
1 0 0 0 0 0 1 1 0 -0 -0 1 0 
1 0 80 0 -0 1 0 0 0 1 1 0 -0 
1 0 0 30 0 0 1 1 0 -0 -0 1 0 
2 0 0 0 0 0 1 1 0 -0 -0 1 0 20
1 0 0 30 0 0 1 1 0 -0 -0 1 0 
1 0 0 0 1 0 -0 0 0 1 0 -1 0 
1 0 0 0 -0 1 0 0 0 1 1 0 -0 
1 50 0 0 1 0 -0 0 0 1 0 -1 0 
1 0 50 0 -0 1 0 0 0 1 1 0 -0 
1 0 0 0 1 0 -0 0 0 1 0 -1 0 
1 0 0 0 -0 1 0 0 0 1 1 0 -0 
1 50 0 0 1 0 -0 0 0 1 0 -1 0 
1 0 50 0 -0 1 0 0 0 1 1 0 -0 
2 0 0 0 0 0 1 1 0 -0 -0 1 0 20
2 0 0 0 0 0 1 1 0 -0 -0 1 0 20
Triangulations 22
4 2 1 0
0 0 0 140 0 0 140 0 85 0 0 85 0 0 0 140 85 140 85 0 3 2 1 3 1 4 
4 2 1 8.88178419700125e-16
0 -50 -85 0 -40 -85 140 -40 -85 140 -50 -85 0 0 0 10 140 10 140 0 3 2 1 3 1 4 
22 20 1 8.88178419700125e-15
140 50 -85 140 50 0 140 40 -85 140 40 -55 140 20.000000025 -55 140 -20 -55 140 19.418836348521 -50.2136867142488 140 17.7091205130642 -45.7055365591246 140 14.970214963422 -41.7375468351841 140 11.3612949346231 -38.5403226821269 140 7.09209774085067 -36.2996751462917 140 2.41073360510642 -35.1458225180389 140 -2.4107336051065 -35.1458225180389 140 -7.09209774085075 -36.2996751462917 140 -11.3612949346231 -38.5403226821269 140 -14.970214963422 -41.7375468351841 140 -17.7091205130642 -45.7055365591247 140 -19.418836348521 -50.2136867142489 140 -40 -55 140 -40 -85 140 -50 -85 140 -50 0 0 -100 85 -100 0 -90 30 -90 30 -70.00000005 30 -30 34.7863132857512 -69.418836348521 39.2944634408754 -67.7091205130642 43.2624531648159 -64.970214963422 46.4596773178731 -61.3612949346231 48.7003248537083 -57.0920977408507 49.8541774819611 -52.4107336051064 49.854177481961 -47.5892663948935 48.7003248537083 -42.9079022591493 46.4596773178731 -38.6387050653769 43.2624531648159 -35.029785036578 39.2944634408753 -32.2908794869358 34.7863132857511 -30.581163651479 30 -10 0 -10 0 0 85 0 4 3 1 7 5 4 8 7 4 9 8 4 2 4 1 2 9 4 10 9 2 11 10 2 12 11 2 19 17 16 19 18 17 19 6 18 19 21 20 22 13 12 22 14 13 22 15 14 22 16 15 22 12 2 22 19 16 22 21 19 
12 14 1 1.77635683940025e-15
75 -25 0 75 25 0 125 -25 0 125 25 0 15 -25 0 15 25 0 65 -25 0 65 25 0 0 -50 0 0 50 0 140 50 0 140 -50 0 75 25 75 75 125 25 125 75 15 25 15 75 65 25 65 75 0 0 0 100 140 100 140 0 7 5 9 10 5 6 10 9 5 8 10 6 12 7 9 12 1 7 2 8 7 2 7 1 3 1 12 11 4 3 11 2 4 11 3 12 11 10 8 11 8 2 
22 20 1 1.07442073296724e-14
0 50 -85 0 50 0 0 40 -85 0 40 -55 -8.37128008064504e-32 20.000000025 -55 2.51138402419351e-31 -20 -55 6.54374672214831e-16 19.418836348521 -50.2136867142488 1.27071946703568e-15 17.7091205130642 -45.7055365591246 1.81321466530975e-15 14.970214963422 -41.7375468351841 2.25033241800315e-15 11.3612949346231 -38.5403226821268 2.55666903018773e-15 7.09209774085067 -36.2996751462917 2.71442133145161e-15 2.41073360510642 -35.1458225180389 2.71442133145161e-15 -2.4107336051065 -35.1458225180389 2.55666903018773e-15 -7.09209774085075 -36.2996751462917 2.25033241800314e-15 -11.3612949346231 -38.5403226821269 1.81321466530974e-15 -14.970214963422 -41.7375468351841 1.27071946703567e-15 -17.7091205130642 -45.7055365591247 6.5437467221482e-16 -19.418836348521 -50.2136867142489 0 -40 -55 0 -40 -85 0 -50 -85 0 -50 0 0 -100 85 -100 0 -90 30 -90 30 -70.00000005 30 -30 34.7863132857512 -69.418836348521 39.2944634408754 -67.7091205130642 43.2624531648159 -64.970214963422 46.4596773178732 -61.3612949346231 48.7003248537083 -57.0920977408507 49.8541774819611 -52.4107336051064 49.8541774819611 -47.5892663948935 48.7003248537083 -42.9079022591493 46.4596773178731 -38.6387050653769 43.2624531648159 -35.029785036578 39.2944634408753 -32.2908794869358 34.7863132857511 -30.581163651479 30 -10 0 -10 0 0 85 0 4 3 1 7 5 4 8 7 4 9 8 4 2 4 1 2 9 4 10 9 2 11 10 2 12 11 2 19 17 16 19 18 17 19 6 18 19 21 20 22 13 12 22 14 13 22 15 14 22 16 15 22 12 2 22 19 16 22 21 19 
4 2 1 0
0 -40 -85 140 -40 -85 140 -40 -55 0 -40 -55 0 0 0 140 30 140 30 0 2 1 4 3 2 4 
4 2 1 0
0 100 0 140 100 0 140 100 85 0 100 85 0 0 0 140 85 140 85 0 3 2 1 3 1 4 
4 2 1 8.88178419700125e-16
0 40 -85 0 50 -85 140 50 -85 140 40 -85 0 90 0 100 140 100 140 90 3 2 1 3 1 4 
4 2 1 0
0 40 -85 140 40 -85 140 40 -55 0 40 -55 0 0 0 140 30 140 30 0 2 1 4 3 2 4 
12 10 1 1.18585403718896e-08
-8.37128008064504e-32 20.000000025 -55 0 40 -55 140 40 -55 140 20.000000025 -55 125 20.000000025 -55 125 25 -55 75 25 -55 75 20.000000025 -55 65 20.000000025 -55 65 25 -55 15 25 -55 15 20.000000025 -55 0 60.00000005 0 80 140 80 140 60.00000005 125 60 125 65 75 65 75 60.00000005 65 60 65 65 15 65 15 60.00000005 11 2 1 11 1 12 10 2 11 8 10 9 7 10 8 4 6 5 3 7 6 3 6 4 3 2 10 3 10 7 
28 26 1 0.145822518038924
125 20.000000025 -55 140 20.000000025 -55 140 -20 -55 140 19.418836348521 -50.2136867142488 140 17.7091205130642 -45.7055365591246 140 14.970214963422 -41.7375468351841 140 11.3612949346231 -38.5403226821269 140 7.09209774085067 -36.2996751462917 140 2.41073360510642 -35.1458225180389 140 -2.4107336051065 -35.1458225180389 140 -7.09209774085075 -36.2996751462917 140 -11.3612949346231 -38.5403226821269 140 -14.970214963422 -41.7375468351841 140 -17.7091205130642 -45.7055365591247 140 -19.418836348521 -50.2136867142489 125 -20 -55 125 19.418836348521 -50.2136867142489 125 17.7091205130642 -45.7055365591247 125 14.970214963422 -41.7375468351841 125 11.3612949346231 -38.5403226821269 125 7.09209774085074 -36.2996751462917 125 2.41073360510649 -35.145822518039 125 -2.41073360510643 -35.1458225180389 125 -7.09209774085068 -36.2996751462917 125 -11.3612949346231 -38.5403226821269 125 -14.970214963422 -41.7375468351841 125 -17.7091205130642 -45.7055365591246 125 -19.418836348521 -50.2136867142488 1.5707963267949 125 1.5707963267949 140 4.71238898038469 140 1.81245730014796 140 2.05411827350102 140 2.29577924685408 140 2.53744022020714 140 2.7791011935602 140 3.02076216691326 140 3.26242314026633 140 3.50408411361939 140 3.74574508697245 140 3.98740606032551 140 4.22906703367857 140 4.47072800703163 140 4.71238898038469 125 1.81245730014796 125 2.05411827350102 125 2.29577924685408 125 2.53744022020714 125 2.7791011935602 125 3.02076216691326 125 3.26242314026632 125 3.50408411361938 125 3.74574508697244 125 3.9874060603255 125 4.22906703367857 125 4.47072800703163 125 2 1 17 4 17 18 4 2 17 5 18 19 5 4 18 6 19 20 6 5 19 7 20 21 7 6 20 8 21 22 8 7 21 9 22 23 9 8 22 10 23 24 10 9 23 11 24 25 11 10 24 12 25 26 12 11 25 13 26 27 13 12 26 14 27 28 14 13 27 15 28 16 15 14 28 3 15 16 
12 10 1 8.88178419700125e-16
2.51138402419351e-31 -20 -55 15 -20 -55 15 -25 -55 65 -25 -55 65 -20 -55 75 -20 -55 75 -25 -55 125 -25 -55 125 -20 -55 140 -20 -55 140 -40 -55 0 -40 -55 -1.07544500560332e-30 20 15 20 15 15 65 15 65 20 75 20 75 15 125 15 125 20 140 20 140 0 0 0 3 1 12 2 1 3 4 3 12 7 4 12 6 5 4 6 4 7 11 8 7 11 7 12 10 9 8 10 8 11 
18 16 1 4.44089209850063e-15
75 20.000000025 -55 75 -20 -55 75 19.418836348521 -50.2136867142489 75 17.7091205130642 -45.7055365591247 75 14.970214963422 -41.7375468351841 75 11.3612949346231 -38.5403226821269 75 7.09209774085074 -36.2996751462917 75 2.41073360510649 -35.1458225180389 75 -2.41073360510643 -35.1458225180389 75 -7.09209774085068 -36.2996751462917 75 -11.3612949346231 -38.5403226821269 75 -14.970214963422 -41.7375468351841 75 -17.7091205130642 -45.7055365591246 75 -19.418836348521 -50.2136867142488 75 -25 -55 75 -25 0 75 25 0 75 25 -55 -1.78847951126441e-14 -45 4.52030844625423e-14 -5 4.78631328575113 -44.418836348521 9.29446344087535 -42.7091205130642 13.2624531648159 -39.970214963422 16.4596773178731 -36.3612949346231 18.7003248537083 -32.0920977408507 19.8541774819611 -27.4107336051065 19.8541774819611 -22.5892663948936 18.7003248537083 -17.9079022591493 16.4596773178731 -13.6387050653769 13.2624531648159 -10.029785036578 9.2944634408754 -7.29087948693582 4.78631328575119 -5.58116365147897 0 0 55 0 55 -50 0 -50 3 1 18 4 3 18 15 2 14 13 15 14 17 5 4 17 6 5 17 7 6 17 8 7 17 9 8 17 4 18 16 10 9 16 11 10 16 12 11 16 13 12 16 9 17 16 15 13 
4 2 1 0
75 -25 -55 125 -25 -55 125 -25 0 75 -25 0 0 0 0 50 55 50 55 0 3 2 1 3 1 4 
18 16 1 4.44089209850063e-15
125 20.000000025 -55 125 -20 -55 125 19.418836348521 -50.2136867142489 125 17.7091205130642 -45.7055365591247 125 14.970214963422 -41.7375468351841 125 11.3612949346231 -38.5403226821269 125 7.09209774085074 -36.2996751462917 125 2.41073360510649 -35.145822518039 125 -2.41073360510643 -35.1458225180389 125 -7.09209774085068 -36.2996751462917 125 -11.3612949346231 -38.5403226821269 125 -14.970214963422 -41.7375468351841 125 -17.7091205130642 -45.7055365591246 125 -19.418836348521 -50.2136867142488 125 -25 -55 125 -25 0 125 25 0 125 25 -55 -3.20956498278461e-14 -45 3.09922297473403e-14 -5 4.78631328575112 -44.418836348521 9.29446344087533 -42.7091205130642 13.2624531648159 -39.970214963422 16.4596773178731 -36.3612949346231 18.7003248537083 -32.0920977408507 19.854177481961 -27.4107336051065 19.8541774819611 -22.5892663948936 18.7003248537083 -17.9079022591493 16.4596773178731 -13.6387050653769 13.2624531648159 -10.029785036578 9.29446344087539 -7.29087948693582 4.78631328575118 -5.58116365147897 0 0 55 0 55 -50 0 -50 3 1 18 4 3 18 15 2 14 13 15 14 17 5 4 17 6 5 17 7 6 17 8 7 17 9 8 17 4 18 16 10 9 16 11 10 16 12 11 16 13 12 16 9 17 16 15 13 
4 2 1 0
75 25 -55 125 25 -55 125 25 0 75 25 0 0 0 0 50 55 50 55 0 3 2 1 3 1 4 
18 16 1 4.78298716822545e-15
15 20.000000025 -55 15 -20 -55 15 19.418836348521 -50.2136867142489 15 17.7091205130642 -45.7055365591246 15 14.970214963422 -41.7375468351841 15 11.3612949346231 -38.5403226821269 15 7.09209774085074 -36.2996751462917 15 2.41073360510649 -35.1458225180389 15 -2.41073360510643 -35.1458225180389 15 -7.09209774085068 -36.2996751462917 15 -11.3612949346231 -38.5403226821268 15 -14.970214963422 -41.7375468351841 15 -17.7091205130642 -45.7055365591246 15 -19.418836348521 -50.2136867142488 15 -25 -55 15 -25 0 15 25 0 15 25 -55 -3.67394039744206e-15 -45 5.94139391777443e-14 -5 4.78631328575115 -44.418836348521 9.29446344087536 -42.7091205130642 13.2624531648159 -39.970214963422 16.4596773178731 -36.3612949346231 18.7003248537083 -32.0920977408507 19.8541774819611 -27.4107336051065 19.8541774819611 -22.5892663948936 18.7003248537083 -17.9079022591493 16.4596773178732 -13.6387050653769 13.2624531648159 -10.029785036578 9.29446344087541 -7.29087948693582 4.78631328575121 -5.58116365147897 0 0 55 0 55 -50 0 -50 3 1 18 4 3 18 15 2 14 13 15 14 17 5 4 17 6 5 17 7 6 17 8 7 17 9 8 17 4 18 16 10 9 16 11 10 16 12 11 16 13 12 16 9 17 16 15 13 
4 2 1 0
15 -25 -55 65 -25 -55 65 -25 0 15 -25 0 0 0 0 50 55 50 55 0 3 2 1 3 1 4 
18 16 1 4.44089209850063e-15
65 20.000000025 -55 65 -20 -55 65 19.418836348521 -50.2136867142489 65 17.7091205130642 -45.7055365591247 65 14.970214963422 -41.7375468351841 65 11.3612949346231 -38.5403226821269 65 7.09209774085074 -36.2996751462917 65 2.41073360510649 -35.1458225180389 65 -2.41073360510643 -35.1458225180389 65 -7.09209774085068 -36.2996751462917 65 -11.3612949346231 -38.5403226821269 65 -14.970214963422 -41.7375468351841 65 -17.7091205130642 -45.7055365591246 65 -19.418836348521 -50.2136867142488 65 -25 -55 65 -25 0 65 25 0 65 25 -55 -1.78847951126441e-14 -45 4.52030844625423e-14 -5 4.78631328575113 -44.418836348521 9.29446344087535 -42.7091205130642 13.2624531648159 -39.970214963422 16.4596773178731 -36.3612949346231 18.7003248537083 -32.0920977408507 19.8541774819611 -27.4107336051065 19.8541774819611 -22.5892663948936 18.7003248537083 -17.9079022591493 16.4596773178731 -13.6387050653769 13.2624531648159 -10.029785036578 9.2944634408754 -7.29087948693582 4.78631328575119 -5.58116365147897 0 0 55 0 55 -50 0 -50 3 1 18 4 3 18 15 2 14 13 15 14 17 5 4 17 6 5 17 7 6 17 8 7 17 9 8 17 4 18 16 10 9 16 11 10 16 12 11 16 13 12 16 9 17 16 15 13 
4 2 1 0
15 25 -55 65 25 -55 65 25 0 15 25 0 0 0 0 50 55 50 55 0 3 2 1 3 1 4 
28 26 1 0.14582251803892
15 20.000000025 -55 15 -20 -55 15 19.418836348521 -50.2136867142489 15 17.7091205130642 -45.7055365591246 15 14.970214963422 -41.7375468351841 15 11.3612949346231 -38.5403226821269 15 7.09209774085074 -36.2996751462917 15 2.41073360510649 -35.1458225180389 15 -2.41073360510643 -35.1458225180389 15 -7.09209774085068 -36.2996751462917 15 -11.3612949346231 -38.5403226821268 15 -14.970214963422 -41.7375468351841 15 -17.7091205130642 -45.7055365591246 15 -19.418836348521 -50.2136867142488 2.51138402419351e-31 -20 -55 -8.37128008064504e-32 20.000000025 -55 6.54374672214831e-16 19.418836348521 -50.2136867142488 1.27071946703568e-15 17.7091205130642 -45.7055365591246 1.81321466530975e-15 14.970214963422 -41.7375468351841 2.25033241800315e-15 11.3612949346231 -38.5403226821268 2.55666903018773e-15 7.09209774085067 -36.2996751462917 2.71442133145161e-15 2.41073360510642 -35.1458225180389 2.71442133145161e-15 -2.4107336051065 -35.1458225180389 2.55666903018773e-15 -7.09209774085075 -36.2996751462917 2.25033241800314e-15 -11.3612949346231 -38.5403226821269 1.81321466530974e-15 -14.970214963422 -41.7375468351841 1.27071946703567e-15 -17.7091205130642 -45.7055365591247 6.5437467221482e-16 -19.418836348521 -50.2136867142489 1.5707963267949 15 4.71238898038469 15 1.81245730014796 15 2.05411827350102 15 2.29577924685408 15 2.53744022020714 15 2.7791011935602 15 3.02076216691326 15 3.26242314026632 15 3.50408411361938 15 3.74574508697244 15 3.9874060603255 15 4.22906703367857 15 4.47072800703163 15 4.71238898038469 -1.07544500560332e-30 1.5707963267949 0 1.81245730014796 0 2.05411827350102 0 2.29577924685408 0 2.53744022020714 0 2.7791011935602 0 3.02076216691326 0 3.26242314026633 0 3.50408411361939 0 3.74574508697245 0 3.98740606032551 0 4.22906703367857 0 4.47072800703163 0 3 16 17 3 1 16 4 17 18 4 3 17 5 18 19 5 4 18 6 19 20 6 5 19 7 20 21 7 6 20 8 21 22 8 7 21 9 22 23 9 8 22 10 23 24 10 9 23 11 24 25 11 10 24 12 25 26 12 11 25 13 26 27 13 12 26 14 27 28 14 13 27 2 28 15 2 14 28 
28 26 1 0.145822518038926
65 20.000000025 -55 75 20.000000025 -55 75 -20 -55 75 19.418836348521 -50.2136867142489 75 17.7091205130642 -45.7055365591247 75 14.970214963422 -41.7375468351841 75 11.3612949346231 -38.5403226821269 75 7.09209774085074 -36.2996751462917 75 2.41073360510649 -35.1458225180389 75 -2.41073360510643 -35.1458225180389 75 -7.09209774085068 -36.2996751462917 75 -11.3612949346231 -38.5403226821269 75 -14.970214963422 -41.7375468351841 75 -17.7091205130642 -45.7055365591246 75 -19.418836348521 -50.2136867142488 65 -20 -55 65 19.418836348521 -50.2136867142489 65 17.7091205130642 -45.7055365591247 65 14.970214963422 -41.7375468351841 65 11.3612949346231 -38.5403226821269 65 7.09209774085074 -36.2996751462917 65 2.41073360510649 -35.1458225180389 65 -2.41073360510643 -35.1458225180389 65 -7.09209774085068 -36.2996751462917 65 -11.3612949346231 -38.5403226821269 65 -14.970214963422 -41.7375468351841 65 -17.7091205130642 -45.7055365591246 65 -19.418836348521 -50.2136867142488 1.5707963267949 65 1.5707963267949 75 4.71238898038469 75 1.81245730014796 75 2.05411827350102 75 2.29577924685408 75 2.53744022020714 75 2.7791011935602 75 3.02076216691326 75 3.26242314026632 75 3.50408411361938 75 3.74574508697244 75 3.9874060603255 75 4.22906703367857 75 4.47072800703163 75 4.71238898038469 65 1.81245730014796 65 2.05411827350102 65 2.29577924685408 65 2.53744022020714 65 2.7791011935602 65 3.02076216691326 65 3.26242314026632 65 3.50408411361938 65 3.74574508697244 65 3.9874060603255 65 4.22906703367857 65 4.47072800703163 65 4 2 1 4 1 17 5 17 18 5 4 17 6 18 19 6 5 18 7 19 20 7 6 19 8 20 21 8 7 20 9 21 22 9 8 21 10 22 23 10 9 22 11 23 24 11 10 23 12 24 25 12 11 24 13 25 26 13 12 25 14 26 27 14 13 26 15 27 28 15 14 27 3 28 16 3 15 28 

TShapes 160
Ve
1e-07
140 -50 -85
0 0

0101101
*
Ve
1e-07
0 -50 -85
0 0

0101101
*
Ed
 1e-07 1 1 0
1  1 0 0 140
2  1 1 0 0 140
2  2 2 0 0 140
6  1 1 0
6  2 2 6
0

0101000
-160 7 +159 7 *
Ve
1e-07
140 -50 0
0 0

0101101
*
Ed
 1e-07 1 1 0
1  2 0 0 85
2  3 1 0 0 85
2  4 3 0 0 85
6  3 1 0
6  4 3 8
0

0101000
-157 7 +160 7 *
Ve
1e-07
0 -50 0
0 0

0101101
*
Ed
 1e-07 1 1 0
1  3 0 0 140
2  5 1 0 0 140
2  6 4 0 0 140
6  5 1 0
6  6 4 9
0

0101000
-157 7 +155 7 *
Ed
 1e-07 1 1 0
1  4 0 0 85
2  7 1 0 0 85
2  8 5 0 0 85
6  7 1 0
6  8 5 8
0

0101000
-155 7 +159 7 *
Wi

0101000
-158 0 -156 0 +154 0 +153 0 *
Fa
0  1e-07 1 0
2  1
0101000
+152 0 *
Ve
1e-07
0 -40 -85
0 0

0101101
*
Ed
 1e-07 1 1 0
1  5 0 0 10
2  9 2 0 0 10
2  10 5 0 0 10
6  9 2 6
6  10 5 8
0

0101000
+159 7 -150 7 *
Ve
1e-07
140 -40 -85
0 0

0101101
*
Ed
 1e-07 1 1 0
1  6 0 0 140
2  11 2 12 0 140
2  12 6 0 0 140
6  11 2 13
6  12 6 13
0

0101000
-148 14 +150 14 *
Ed
 1e-07 1 1 0
1  7 0 0 10
2  13 2 0 0 10
2  14 3 0 0 10
6  13 2 6
6  14 3 8
0

0101000
+160 7 -148 7 *
Wi

0101000
-149 2 -147 11 +146 2 +158 2 *
Fa
0  1e-07 2 2
2  2
0101000
+145 0 *
Ve
1e-07
140 50 0
0 0

0101101
*
Ve
1e-07
140 50 -85
0 0

0101101
*
Ed
 1e-07 1 1 0
1  8 0 0 85
2  15 3 0 0 85
2  16 7 0 0 85
6  15 3 8
6  16 7 0
0

0101000
-143 7 +142 7 *
Ve
1e-07
140 40 -85
0 0

0101101
*
Ed
 1e-07 1 1 0
1  9 0 90 100
2  17 3 0 90 100
2  18 8 0 90 100
6  17 3 8
6  18 8 6
0

0101000
+140 7 -142 7 *
Ve
1e-07
140 40 -55
0 0

0101101
*
Ed
 1e-07 1 1 0
1  10 0 0 30
2  19 3 12 0 30
2  20 9 0 0 30
6  19 3 17
6  20 9 13
0

0101000
-138 14 +140 14 *
Ve
1.24999996739443e-07
140 20.000000025 -55
0 0

0101101
*
Ed
 1e-07 1 1 0
1  11 0 60.00000005 80
2  21 3 12 60.00000005 80
2  22 10 0 60.00000005 80
6  21 3 17
6  22 10 18
0

0101000
+136 14 -138 14 *
Ve
1.00000015888219e-07
140 -20 -55
0 0

0101101
*
Ed
 1e-07 1 1 0
1  12 0 1.5707963267949 4.71238898038469
2  23 3 20 1.5707963267949 4.71238898038469
2  24 11 0 1.5707963267949 4.71238898038469
6  23 11 21
6  24 3 22
0

0101000
+136 23 -134 23 *
Ve
1e-07
140 -40 -55
0 0

0101101
*
Ed
 1e-07 1 1 0
1  13 0 0 20
2  25 3 12 0 20
2  26 12 0 0 20
6  25 3 17
6  26 12 18
0

0101000
+132 14 -134 14 *
Ed
 1e-07 1 1 0
1  14 0 0 30
2  27 3 12 0 30
2  28 6 0 0 30
6  27 3 17
6  28 6 13
0

0101000
-132 14 +148 14 *
Ed
 1e-07 1 1 0
1  15 0 0 100
2  29 3 0 0 100
2  30 4 0 0 100
6  29 3 8
6  30 4 9
0

0101000
-143 7 +157 7 *
Wi

0101000
+141 15 +139 15 -137 16 +135 16 -133 19 +131 16 +130 16 +146 15 -156 15 -129 15 
*
Fa
0  1e-07 3 15
2  3
0101000
+128 0 *
Ve
1e-07
75 25 0
0 0

0101101
*
Ve
1e-07
75 -25 0
0 0

0101101
*
Ed
 1e-07 1 1 0
1  16 0 0 50
2  31 4 27 0 50
2  32 13 0 0 50
6  31 4 28
6  32 13 28
0

0101000
-126 29 +125 29 *
Ve
1e-07
125 -25 0
0 0

0101101
*
Ed
 1e-07 1 1 0
1  17 0 0 50
2  33 4 27 0 50
2  34 14 0 0 50
6  33 4 28
6  34 14 28
0

0101000
-123 29 +125 29 *
Ve
1e-07
125 25 0
0 0

0101101
*
Ed
 1e-07 1 1 0
1  18 0 0 50
2  35 4 27 0 50
2  36 15 0 0 50
6  35 4 28
6  36 15 28
0

0101000
-121 29 +123 29 *
Ed
 1e-07 1 1 0
1  19 0 0 50
2  37 4 27 0 50
2  38 16 0 0 50
6  37 4 28
6  38 16 28
0

0101000
-121 29 +126 29 *
Wi

0101000
+124 26 -122 26 -120 26 +119 26 *
Ve
1e-07
15 25 0
0 0

0101101
*
Ve
1e-07
15 -25 0
0 0

0101101
*
Ed
 1e-07 1 1 0
1  20 0 0 50
2  39 4 32 0 50
2  40 17 0 0 50
6  39 4 33
6  40 17 33
0

0101000
-117 34 +116 34 *
Ve
1e-07
65 -25 0
0 0

0101101
*
Ed
 1e-07 1 1 0
1  21 0 0 50
2  41 4 32 0 50
2  42 18 0 0 50
6  41 4 33
6  42 18 33
0

0101000
-114 34 +116 34 *
Ve
1e-07
65 25 0
0 0

0101101
*
Ed
 1e-07 1 1 0
1  22 0 0 50
2  43 4 32 0 50
2  44 19 0 0 50
6  43 4 33
6  44 19 33
0

0101000
-112 34 +114 34 *
Ed
 1e-07 1 1 0
1  23 0 0 50
2  45 4 32 0 50
2  46 20 0 0 50
6  45 4 33
6  46 20 33
0

0101000
-112 34 +117 34 *
Wi

0101000
+115 31 -113 31 -111 31 +110 31 *
Ve
1e-07
0 50 0
0 0

0101101
*
Ed
 1e-07 1 1 0
1  24 0 0 100
2  47 4 0 0 100
2  48 5 0 0 100
6  47 4 9
6  48 5 8
0

0101000
-108 7 +155 7 *
Ed
 1e-07 1 1 0
1  25 0 0 140
2  49 4 0 0 140
2  50 7 0 0 140
6  49 4 9
6  50 7 0
0

0101000
-143 7 +108 7 *
Wi

0101000
-107 5 -106 5 +154 5 +129 5 *
Fa
0  1e-07 4 5
2  4
0101000
+118 0 +109 0 +105 0 *
Ve
1e-07
0 50 -85
0 0

0101101
*
Ed
 1e-07 1 1 0
1  26 0 0 85
2  51 5 0 0 85
2  52 7 0 0 85
6  51 5 8
6  52 7 0
0

0101000
-108 7 +103 7 *
Ve
1e-07
0 40 -85
0 0

0101101
*
Ed
 1e-07 1 1 0
1  27 0 90 100
2  53 5 0 90 100
2  54 8 0 90 100
6  53 5 8
6  54 8 6
0

0101000
+101 7 -103 7 *
Ve
1e-07
0 40 -55
0 0

0101101
*
Ed
 1e-07 1 1 0
1  28 0 0 30
2  55 5 12 0 30
2  56 9 0 0 30
6  55 5 17
6  56 9 13
0

0101000
-99 14 +101 14 *
Ve
1.24999996739439e-07
-8.37128008064504e-32 20.000000025 -55
0 0

0101101
*
Ed
 1e-07 1 1 0
1  29 0 60.00000005 80
2  57 5 12 60.00000005 80
2  58 10 0 60.00000005 80
6  57 5 17
6  58 10 18
0

0101000
+97 14 -99 14 *
Ve
1.00000003552714e-07
2.51138402419351e-31 -20 -55
0 0

0101101
*
Ed
 1e-07 1 1 0
1  30 0 1.5707963267949 4.71238898038469
2  59 5 20 1.5707963267949 4.71238898038469
2  60 21 0 1.5707963267949 4.71238898038469
6  59 21 21
6  60 5 22
0

0101000
+97 23 -95 23 *
Ve
1e-07
0 -40 -55
0 0

0101101
*
Ed
 1e-07 1 1 0
1  31 0 0 20
2  61 5 12 0 20
2  62 12 0 0 20
6  61 5 17
6  62 12 18
0

0101000
+93 14 -95 14 *
Ed
 1e-07 1 1 0
1  32 0 0 30
2  63 5 12 0 30
2  64 6 0 0 30
6  63 5 17
6  64 6 13
0

0101000
-93 14 +150 14 *
Wi

0101000
+102 15 +100 15 -98 16 +96 16 -94 19 +92 16 +91 16 +149 15 -153 15 -107 15 
*
Fa
0  1e-07 5 15
2  5
0101000
+90 0 *
Ed
 1e-07 1 1 0
1  33 0 0 140
2  65 6 0 0 140
2  66 12 0 0 140
6  65 6 13
6  66 12 18
0

0101000
-132 14 +93 14 *
Wi

0101000
-147 11 -130 11 +91 11 +88 11 *
Fa
0  1e-07 6 11
2  6
0101000
+87 0 *
Ed
 1e-07 1 1 0
1  34 0 0 140
2  67 7 0 0 140
2  68 8 0 0 140
6  67 7 0
6  68 8 6
0

0101000
-142 7 +103 7 *
Wi

0101000
-85 0 -141 0 +106 0 +102 0 *
Fa
0  1e-07 7 0
2  7
0101000
+84 0 *
Ed
 1e-07 1 1 0
1  35 0 0 140
2  69 8 12 0 140
2  70 9 0 0 140
6  69 8 13
6  70 9 13
0

0101000
-140 14 +101 14 *
Wi

0101000
-100 2 -85 2 +139 2 +82 11 *
Fa
0  1e-07 8 2
2  8
0101000
+81 0 *
Ed
 1e-07 1 1 0
1  36 0 0 140
2  71 9 0 0 140
2  72 10 0 0 140
6  71 9 13
6  72 10 18
0

0101000
-138 14 +99 14 *
Wi

0101000
-82 11 -137 11 +98 11 +79 11 *
Fa
0  1e-07 9 11
2  9
0101000
+78 0 *
Ve
1.24999996739443e-07
125 20.000000025 -55
0 0

0101101
*
Ed
 1e-07 1 1 0
1  37 0 125 140
2  73 10 16 125 140
2  74 11 19 125 140
6  73 11 36
6  74 10 36
0

0101000
+76 37 -136 37 *
Ve
1e-07
125 25 -55
0 0

0101101
*
Ed
 1e-07 1 1 0
1  38 0 45.00000005 50
2  75 10 38 45.00000005 50
2  76 15 0 45.00000005 50
6  75 10 28
6  76 15 28
0

0101000
+76 29 -74 29 *
Ve
1e-07
75 25 -55
0 0

0101101
*
Ed
 1e-07 1 1 0
1  39 0 0 50
2  77 10 38 0 50
2  78 16 0 0 50
6  77 10 28
6  78 16 28
0

0101000
-74 29 +72 29 *
Ve
1.2499999673944e-07
75 20.000000025 -55
0 0

0101101
*
Ed
 1e-07 1 1 0
1  40 0 45.00000005 50
2  79 10 38 45.00000005 50
2  80 13 0 45.00000005 50
6  79 10 28
6  80 13 28
0

0101000
+70 29 -72 29 *
Ve
1.2499999673944e-07
65 20.000000025 -55
0 0

0101101
*
Ed
 1e-07 1 1 0
1  41 0 65 75
2  81 10 16 65 75
2  82 22 19 65 75
6  81 22 36
6  82 10 36
0

0101000
+68 37 -70 37 *
Ve
1e-07
65 25 -55
0 0

0101101
*
Ed
 1e-07 1 1 0
1  42 0 45.00000005 50
2  83 10 39 45.00000005 50
2  84 19 0 45.00000005 50
6  83 10 33
6  84 19 33
0

0101000
+68 34 -66 34 *
Ve
1e-07
15 25 -55
0 0

0101101
*
Ed
 1e-07 1 1 0
1  43 0 0 50
2  85 10 39 0 50
2  86 20 0 0 50
6  85 10 33
6  86 20 33
0

0101000
-66 34 +64 34 *
Ve
1.24999996739439e-07
15 20.000000025 -55
0 0

0101101
*
Ed
 1e-07 1 1 0
1  44 0 45.00000005 50
2  87 10 39 45.00000005 50
2  88 17 0 45.00000005 50
6  87 10 33
6  88 17 33
0

0101000
+62 34 -64 34 *
Ed
 1e-07 1 1 0
1  45 0 -1.67425601612901e-31 15
2  89 10 16 -1.67425601612901e-31 15
2  90 21 19 -1.67425601612901e-31 15
6  89 21 36
6  90 10 36
0

0101000
+97 37 -62 37 *
Wi

0101000
-96 35 -79 35 +135 35 +75 4 -73 26 +71 26 +69 26 +67 4 -65 31 +63 31 
+61 31 +60 4 *
Fa
0  1e-07 10 35
2  10
0101000
+59 0 *
Ve
1.00000014210855e-07
125 -20 -55
0 0

0101101
*
Ed
 1e-07 1 1 0
1  46 0 125 140
2  91 11 19 125 140
2  92 12 16 125 140
6  91 11 36
6  92 12 36
0

0101000
+57 37 -134 37 *
Ed
 1e-07 1 1 0
1  47 0 4.71238898038469 7.85398163397448
2  93 11 40 4.71238898038469 7.85398163397448
2  94 15 26 4.71238898038469 7.85398163397448
6  93 11 0
6  94 15 0
0

0101000
+76 41 -57 41 *
Wi

0101000
-75 4 -133 40 +56 4 +55 0 *
Fa
0  1e-07 11 40
2  11
0101000
+54 0 *
Ve
1e-07
15 -20 -55
0 0

0101101
*
Ed
 1e-07 1 1 0
1  48 0 -1.07544500560332e-30 15
2  95 12 16 -1.07544500560332e-30 15
2  96 21 19 -1.07544500560332e-30 15
6  95 21 36
6  96 12 36
0

0101000
+95 37 -52 37 *
Ve
1e-07
15 -25 -55
0 0

0101101
*
Ed
 1e-07 1 1 0
1  49 0 0 5
2  97 12 39 0 5
2  98 17 0 0 5
6  97 12 33
6  98 17 33
0

0101000
+50 34 -52 34 *
Ve
1e-07
65 -25 -55
0 0

0101101
*
Ed
 1e-07 1 1 0
1  50 0 0 50
2  99 12 39 0 50
2  100 18 0 0 50
6  99 12 33
6  100 18 33
0

0101000
-48 34 +50 34 *
Ve
1.00000007105427e-07
65 -20 -55
0 0

0101101
*
Ed
 1e-07 1 1 0
1  51 0 0 5
2  101 12 39 0 5
2  102 19 0 0 5
6  101 12 33
6  102 19 33
0

0101000
+48 34 -46 34 *
Ve
1.00000007105427e-07
75 -20 -55
0 0

0101101
*
Ed
 1e-07 1 1 0
1  52 0 65 75
2  103 12 16 65 75
2  104 22 19 65 75
6  103 22 36
6  104 12 36
0

0101000
+46 37 -44 37 *
Ve
1e-07
75 -25 -55
0 0

0101101
*
Ed
 1e-07 1 1 0
1  53 0 0 5
2  105 12 38 0 5
2  106 13 0 0 5
6  105 12 28
6  106 13 28
0

0101000
+42 29 -44 29 *
Ve
1e-07
125 -25 -55
0 0

0101101
*
Ed
 1e-07 1 1 0
1  54 0 0 50
2  107 12 38 0 50
2  108 14 0 0 50
6  107 12 28
6  108 14 28
0

0101000
-40 29 +42 29 *
Ed
 1e-07 1 1 0
1  55 0 0 5
2  109 12 38 0 5
2  110 15 0 0 5
6  109 12 28
6  110 15 28
0

0101000
+40 29 -57 29 *
Wi

0101000
-51 4 +49 31 -47 31 -45 31 -43 4 +41 26 -39 26 -38 26 -56 4 +131 35 
+88 35 -92 35 *
Fa
0  1e-07 12 35
2  12
0101000
+37 0 *
Ed
 1e-07 1 1 0
1  56 0 4.71238898038469 7.85398163397448
2  111 13 26 4.71238898038469 7.85398163397448
2  112 22 40 4.71238898038469 7.85398163397448
6  111 22 0
6  112 13 0
0

0101000
+70 41 -44 41 *
Ed
 1e-07 1 1 0
1  57 0 0 55
2  113 13 0 0 55
2  114 14 0 0 55
6  113 13 28
6  114 14 28
0

0101000
-125 29 +42 29 *
Ed
 1e-07 1 1 0
1  58 0 0 55
2  115 13 0 0 55
2  116 16 0 0 55
6  115 13 28
6  116 16 28
0

0101000
-126 29 +72 29 *
Wi

0101000
-35 0 +41 26 -34 26 -124 26 +33 26 +69 26 *
Fa
0  1e-07 13 26
2  13
0101000
+32 0 *
Ed
 1e-07 1 1 0
1  59 0 0 55
2  117 14 0 0 55
2  118 15 0 0 55
6  117 14 28
6  118 15 28
0

0101000
-123 29 +40 29 *
Wi

0101000
-39 26 -30 26 +34 26 +122 26 *
Fa
0  1e-07 14 26
2  14
0101000
+29 0 *
Ed
 1e-07 1 1 0
1  60 0 0 55
2  119 15 0 0 55
2  120 16 0 0 55
6  119 15 28
6  120 16 28
0

0101000
-121 29 +74 29 *
Wi

0101000
-55 0 +38 26 -30 26 -120 26 +27 26 +73 26 *
Fa
0  1e-07 15 26
2  15
0101000
+26 0 *
Wi

0101000
-71 26 -27 26 +33 26 +119 26 *
Fa
0  1e-07 16 26
2  16
0101000
+24 0 *
Ed
 1e-07 1 1 0
1  61 0 4.71238898038469 7.85398163397448
2  121 17 31 4.71238898038469 7.85398163397448
2  122 21 40 4.71238898038469 7.85398163397448
6  121 21 0
6  122 17 0
0

0101000
+62 41 -52 41 *
Ed
 1e-07 1 1 0
1  62 0 0 55
2  123 17 0 0 55
2  124 18 0 0 55
6  123 17 33
6  124 18 33
0

0101000
-116 34 +50 34 *
Ed
 1e-07 1 1 0
1  63 0 0 55
2  125 17 0 0 55
2  126 20 0 0 55
6  125 17 33
6  126 20 33
0

0101000
-117 34 +64 34 *
Wi

0101000
-22 0 +49 31 -21 31 -115 31 +20 31 +61 31 *
Fa
0  1e-07 17 31
2  17
0101000
+19 0 *
Ed
 1e-07 1 1 0
1  64 0 0 55
2  127 18 0 0 55
2  128 19 0 0 55
6  127 18 33
6  128 19 33
0

0101000
-114 34 +48 34 *
Wi

0101000
-47 31 -17 31 +21 31 +113 31 *
Fa
0  1e-07 18 31
2  18
0101000
+16 0 *
Ed
 1e-07 1 1 0
1  65 0 4.71238898038469 7.85398163397448
2  129 19 31 4.71238898038469 7.85398163397448
2  130 22 40 4.71238898038469 7.85398163397448
6  129 22 0
6  130 19 0
0

0101000
+68 41 -46 41 *
Ed
 1e-07 1 1 0
1  66 0 0 55
2  131 19 0 0 55
2  132 20 0 0 55
6  131 19 33
6  132 20 33
0

0101000
-112 34 +66 34 *
Wi

0101000
-14 0 +45 31 -17 31 -111 31 +13 31 +65 31 *
Fa
0  1e-07 19 31
2  19
0101000
+12 0 *
Wi

0101000
-63 31 -13 31 +20 31 +110 31 *
Fa
0  1e-07 20 31
2  20
0101000
+10 0 *
Wi

0101000
-22 0 +51 4 +94 40 -60 4 *
Fa
0  1e-07 21 40
2  21
0101000
+8 0 *
Wi

0101000
-67 4 -35 0 +43 4 +14 0 *
Fa
0  1e-07 22 40
2  22
0101000
+6 0 *
Sh

0101000
-151 5 -144 10 +127 4 +104 0 -89 4 +86 10 +83 5 -80 10 -77 10 -58 0 
-53 0 -36 0 +31 0 +28 0 -25 0 -23 0 +18 0 +15 0 -11 0 -9 0 
-7 0 -5 0 *
So

0100000
+4 0 *
Co

0100000
+3 0 *
Co

1100000
+2 1 *

+1 0 